<svg width="100" height="54" viewBox="0 0 100 54" fill="none" xmlns="http://www.w3.org/2000/svg">
<g clip-path="url(#clip0_110_208)">
<path d="M35.8478 12.5902C35.8478 10.9715 35.5232 9.39784 34.8517 7.88034C34.1914 6.36284 33.2065 5.02518 31.9082 3.85614C30.61 2.6871 28.9648 1.75412 27.0062 1.04595C25.0364 0.337783 22.7532 -0.0106812 20.1455 -0.0106812C18.1645 -0.0106812 16.2955 0.315301 14.5383 0.956025C12.7812 1.59675 11.1584 2.50725 9.66984 3.68753C8.18131 4.86781 6.83828 6.27291 5.64074 7.91406C4.45439 9.55521 3.43593 11.3762 2.59653 13.3658C1.75714 15.3554 1.11919 17.4912 0.671517 19.7618C0.223839 22.0437 0 24.4043 0 26.8548C0 28.2823 0.0783436 29.7998 0.223839 31.4073C0.369334 33.0147 0.604365 34.6221 0.928931 36.2071C1.2535 37.792 1.67879 39.3208 2.19362 40.7708C2.70845 42.2209 3.34639 43.5136 4.09625 44.6264C4.84611 45.7392 5.71908 46.6273 6.71517 47.2905C7.71125 47.9537 8.84164 48.2797 10.1063 48.2797C11.3039 48.2797 12.4007 48.0548 13.4079 47.6165C14.4152 47.1781 15.3218 46.5823 16.1388 45.8292C16.9558 45.076 17.6609 44.2105 18.2764 43.2101C18.892 42.2096 19.4068 41.153 19.8321 40.0402C20.2574 38.9273 20.582 37.792 20.8058 36.623C21.0297 35.4539 21.164 34.3299 21.1864 33.2395C21.1864 33.1496 21.1864 32.981 21.1864 32.7224C21.1864 32.4751 21.1975 32.1829 21.2087 31.8457C21.2087 31.5084 21.2311 31.1487 21.2423 30.7441C21.2535 30.3394 21.2759 29.9347 21.2871 29.5301C21.3207 28.5858 21.3542 27.5404 21.399 26.4051C23.8388 26.0342 25.9653 25.3935 27.7672 24.4717C29.5803 23.5612 31.08 22.4709 32.2664 21.2119C33.4527 19.9529 34.3481 18.5816 34.9301 17.0978C35.5232 15.6027 35.8142 14.1077 35.8142 12.579L35.8478 12.5902ZM29.7706 15.7376C29.4236 16.5807 28.8976 17.3675 28.1813 18.0757C27.465 18.7839 26.5585 19.3909 25.4729 19.908C24.3761 20.425 23.0778 20.8072 21.5669 21.0433L21.7795 19.1886L23.1897 13.141C23.1897 13.0736 23.1897 13.0286 23.2009 12.9836C23.2009 12.9387 23.2121 12.8712 23.2121 12.7588C23.2121 12.3654 23.1338 12.0507 22.9659 11.8034C22.8092 11.5561 22.6077 11.3537 22.3615 11.2076C22.1265 11.0615 21.8579 10.9603 21.5669 10.9041C21.2759 10.8479 20.9849 10.8254 20.7163 10.8254C19.7986 10.8254 19.0263 11.0615 18.3996 11.5223C17.7728 11.9832 17.2692 12.5677 16.8886 13.2759C16.4969 13.9841 16.2059 14.7597 16.0045 15.6027C15.803 16.4458 15.6575 17.2551 15.568 18.0308C15.4785 18.8064 15.4337 19.4921 15.4337 20.0991C15.4337 20.7061 15.4225 21.1107 15.4225 21.3131C15.1427 21.2456 14.8405 21.1557 14.5048 21.0208C14.2138 20.9084 13.8668 20.7623 13.4527 20.5712C13.0386 20.3801 12.5797 20.144 12.0761 19.863C11.8747 19.7506 11.7068 19.6607 11.5837 19.5932C11.4494 19.5258 11.3151 19.4921 11.1584 19.4921C10.9233 19.4921 10.7443 19.5595 10.6212 19.6944C10.4869 19.8293 10.3861 20.0091 10.319 20.2227C10.2518 20.4363 10.2071 20.6836 10.1959 20.9646C10.1847 21.2456 10.1735 21.5266 10.1735 21.8077C10.1735 22.3247 10.2182 22.7744 10.319 23.1678C10.4197 23.5612 10.6547 23.9209 11.0241 24.2806C11.3934 24.6291 11.9418 25 12.6693 25.3822C13.3968 25.7644 14.3928 26.2028 15.6687 26.7086V27.799C15.6687 28.5184 15.6575 29.3839 15.624 30.3956C15.5904 31.4073 15.5232 32.4751 15.4113 33.5992C15.2994 34.7121 15.1427 35.8361 14.9301 36.9377C14.7174 38.0506 14.4264 39.0397 14.0459 39.9165C13.6766 40.7933 13.2177 41.5127 12.6581 42.0635C12.0985 42.6143 11.427 42.8953 10.6435 42.8953C9.8601 42.8953 9.25574 42.5693 8.7521 41.9286C8.24846 41.2879 7.83436 40.4561 7.4986 39.4332C7.16284 38.4215 6.91662 37.2749 6.74874 36.0272C6.58086 34.7683 6.45775 33.5318 6.37941 32.3065C6.30106 31.0813 6.2563 29.9235 6.2563 28.8444C6.2563 27.7653 6.2563 26.911 6.2563 26.2702C6.2563 24.719 6.36822 23.1228 6.59206 21.4817C6.81589 19.8405 7.16285 18.2443 7.63291 16.7043C8.10297 15.1531 8.70733 13.7031 9.43481 12.3317C10.1623 10.9603 11.0241 9.76879 12.009 8.74588C13.005 7.72297 14.1242 6.91363 15.4001 6.30663C16.6648 5.71087 18.0862 5.40737 19.6419 5.40737C21.7236 5.40737 23.4471 5.64343 24.8237 6.12678C26.2003 6.61013 27.2972 7.22837 28.1142 7.97026C28.9312 8.71216 29.502 9.54397 29.8377 10.4545C30.1735 11.365 30.3414 12.253 30.3414 13.1298C30.3414 14.0066 30.1623 14.8946 29.8265 15.7489L29.7706 15.7376Z" fill="#F5F5F5"/>
<path d="M41.0297 16.6026C41.8131 16.6026 42.4958 16.479 43.0554 16.2429C43.615 15.9956 44.0851 15.6809 44.4544 15.2875C44.8238 14.894 45.0924 14.4556 45.2603 13.9498C45.4281 13.444 45.5177 12.9269 45.5177 12.3986C45.5177 11.8253 45.4169 11.3195 45.2043 10.8923C44.9917 10.4652 44.7119 10.128 44.3537 9.86941C43.9956 9.61088 43.5815 9.41978 43.1002 9.29613C42.619 9.17249 42.1153 9.10504 41.5669 9.10504C40.7051 9.10504 39.9777 9.23993 39.4069 9.52095C38.8249 9.79073 38.366 10.128 38.0191 10.5326C37.6721 10.926 37.4147 11.3532 37.2692 11.8141C37.1125 12.2637 37.0342 12.6796 37.0342 13.0393C37.0342 14.1184 37.3587 14.984 38.0079 15.6359C38.657 16.2879 39.6643 16.6139 41.0185 16.6139L41.0297 16.6026Z" fill="#F5F5F5"/>
<path d="M98.8921 31.5192C98.1198 32.5646 97.3588 33.4976 96.5977 34.3294C96.2732 34.6778 95.9262 35.0263 95.5681 35.3523C95.2099 35.6783 94.8406 35.9818 94.4824 36.2403C94.1243 36.4988 93.7662 36.7124 93.408 36.8698C93.0499 37.0272 92.7141 37.1171 92.3896 37.1171C91.9531 37.1171 91.6733 36.9148 91.5502 36.5213C91.4159 36.1167 91.3487 35.5659 91.3487 34.8577C91.3487 34.0259 91.4718 33.003 91.7292 31.789C91.9866 30.575 92.2105 29.4958 92.4119 28.5516C92.6134 27.6074 92.7813 26.6744 92.938 25.7751C93.0946 24.8759 93.173 24.0553 93.173 23.3134C93.173 22.8301 93.1282 22.4479 93.0499 22.1669C92.9603 21.8858 92.8484 21.661 92.6917 21.5037C92.535 21.3463 92.356 21.2451 92.1545 21.2002C91.9531 21.1552 91.7404 21.1327 91.5054 21.1327C91.3375 21.1327 91.1584 21.1327 90.9794 21.1439C90.8003 21.1439 90.6212 21.1552 90.4533 21.1552C90.2519 21.1552 90.0504 21.1439 89.8602 21.1215C89.6699 21.099 89.4796 21.0428 89.2894 20.9641C89.0991 20.8854 88.9536 20.7618 88.8193 20.5931C88.6962 20.4245 88.5619 20.2447 88.4388 20.0648C88.3045 19.885 88.1366 19.7276 87.9352 19.5815C87.7337 19.4353 87.4539 19.3679 87.0958 19.3679C86.0213 19.3679 84.9693 19.5927 83.9396 20.0536C82.91 20.5145 81.9251 21.1215 80.9962 21.8971C80.0672 22.6727 79.2054 23.572 78.422 24.6061C77.6386 25.6403 76.8999 26.8655 76.2172 28.2931C75.5345 29.7094 75.0309 31.0358 74.7063 32.2611C74.4041 33.3964 74.2586 34.5092 74.2362 35.5883C74.0012 35.7907 73.7662 35.9818 73.5087 36.1953C73.117 36.5326 72.6917 36.8473 72.2329 37.1508C71.774 37.4543 71.2816 37.7016 70.7555 37.8927C70.2183 38.0838 69.6363 38.185 68.9872 38.185C68.6962 38.185 68.3493 38.1288 67.9575 38.0163C67.5658 37.9039 67.1853 37.7803 66.8384 37.6566C66.4802 37.5217 66.178 37.3981 65.9094 37.2857C65.6408 37.1733 65.5065 37.1171 65.4953 37.1171L65.6072 36.645C65.7415 36.4539 66.0213 36.0942 66.4354 35.5771C66.8384 35.0488 67.3196 34.4305 67.868 33.7111C68.4164 32.9917 69.032 32.1487 69.7259 31.182C70.4198 30.2152 71.0353 29.3385 71.6061 28.5629C72.1657 27.7985 72.6694 27.0903 73.0946 26.4608C73.5311 25.8313 73.8333 25.348 74.0236 24.9995C74.6727 24.8309 75.1316 24.6398 75.4114 24.4487C75.6912 24.2464 75.8479 24.089 75.8702 23.9654C75.9598 23.5832 76.0046 23.1336 76.0046 22.594C76.0046 21.9308 75.8814 21.4025 75.6464 21.0203C75.4114 20.6381 75.0197 20.4358 74.4825 20.4358C74.4377 20.4358 74.3705 20.447 74.2922 20.4695C74.2138 20.492 74.0795 20.5257 73.8893 20.5482C73.699 20.5819 73.4192 20.6044 73.0499 20.6269C72.6805 20.6494 72.1881 20.6606 71.5725 20.6606H70.8675C70.61 20.6606 70.3302 20.6606 70.0281 20.6381C69.6251 20.6269 69.2334 20.5257 68.8641 20.3459C68.4836 20.166 68.1142 19.9637 67.7561 19.7388C67.3979 19.514 67.0286 19.3117 66.6593 19.1318C66.2899 18.952 65.9206 18.8621 65.5513 18.8621C65.0588 18.8621 64.5216 18.9408 63.9396 19.1094C63.3577 19.278 62.8093 19.5815 62.272 20.0424C61.802 20.447 61.3767 20.9978 60.985 21.6947C60.929 21.4362 60.8395 21.2002 60.7164 21.0091C60.4813 20.6269 60.0896 20.4245 59.5524 20.4245C59.5076 20.4245 59.4405 20.4358 59.3621 20.4583C59.2838 20.4807 59.1495 20.5145 58.9592 20.5369C58.769 20.5707 58.4892 20.5931 58.1198 20.6156C57.7505 20.6381 57.2581 20.6494 56.6425 20.6494H55.9374C55.68 20.6494 55.4002 20.6494 55.098 20.6269C54.6951 20.6156 54.3034 20.5145 53.934 20.3346C53.5535 20.1548 53.1842 19.9524 52.826 19.7276C52.4679 19.5028 52.0986 19.3005 51.7292 19.1206C51.3599 18.9408 50.9906 18.8508 50.6212 18.8508C50.1288 18.8508 49.5916 18.9295 49.0096 19.0981C48.4276 19.2667 47.8792 19.5702 47.342 20.0311C46.8048 20.492 46.3235 21.1327 45.8982 21.9758C45.4617 22.8076 45.1372 23.9092 44.9021 25.2581C44.8686 25.4492 44.8462 25.629 44.835 25.8089C44.8238 25.9887 44.8126 26.1573 44.8126 26.3035C44.8126 26.6744 44.8574 26.9779 44.9581 27.2027C45.0588 27.4275 45.2379 27.5399 45.4841 27.5399C45.7415 27.5399 46.0437 27.3713 46.3683 27.0341C46.6929 26.6969 47.0958 26.1573 47.577 25.4379C47.7897 25.1007 47.9911 24.8534 48.1702 24.6623C48.3493 24.4825 48.5507 24.3476 48.7746 24.2576C48.9984 24.1677 49.2782 24.1115 49.6028 24.1003C49.9273 24.089 50.3302 24.0778 50.8339 24.0778C51.0353 24.0778 51.2144 24.1003 51.3935 24.1452C51.5613 24.1902 51.7292 24.2576 51.8859 24.3476C52.0538 24.4375 52.2329 24.5274 52.4343 24.6398C52.6358 24.7522 52.8708 24.8646 53.1506 24.9883L47.4987 32.8343V32.7219C46.9838 33.1378 46.4019 33.6437 45.7415 34.2394C45.0812 34.824 44.3985 35.3972 43.7046 35.948C43.0107 36.4988 42.328 36.971 41.6453 37.3531C40.9626 37.7466 40.347 37.9377 39.7874 37.9377C39.3062 37.9377 38.9928 37.7353 38.8361 37.3194C38.6794 36.9035 38.6011 36.3527 38.6011 35.6558C38.6011 34.9589 38.713 34.1495 38.9368 33.284C39.1607 32.4072 39.3398 31.5304 39.4852 30.6536C39.6307 29.7656 39.8993 28.709 40.3023 27.45C40.7052 26.2023 40.9962 25.1681 41.2088 24.3813C41.4103 23.5832 41.5893 22.875 41.746 22.2568C41.9027 21.6385 41.981 21.1552 41.981 20.8067C41.981 20.4021 41.8691 20.0873 41.6341 19.84C41.4103 19.604 40.9738 19.4803 40.3358 19.4803C39.9889 19.4803 39.5972 19.5253 39.1607 19.604C38.7242 19.6939 38.3101 19.8288 37.9072 20.0086C37.5043 20.1885 37.1461 20.4245 36.8216 20.7056C36.4746 21.0203 36.262 21.3688 36.1836 21.7622C36.0493 22.3242 35.68 23.527 35.098 25.3817C34.4713 27.6524 34.046 29.1249 33.8333 29.7881C33.7102 30.1253 33.4192 31.6316 32.9715 34.3294C32.7589 35.6333 32.647 36.7686 32.647 37.7466C32.647 38.4435 32.7253 39.0842 32.8708 39.6687C33.0163 40.2533 33.2625 40.7478 33.5983 41.1413C33.934 41.5459 34.3817 41.8607 34.9301 42.0855C35.4785 42.3103 36.1501 42.4227 36.9559 42.4227C37.8512 42.4227 38.8025 42.2541 39.7986 41.9394C40.7947 41.6134 41.7684 41.2087 42.7309 40.7141C43.1674 40.4893 43.5927 40.2533 44.0068 40.006C44.0628 40.0959 44.1187 40.1858 44.1859 40.2645C44.4097 40.5343 44.6895 40.7479 45.0253 40.9052C45.361 41.0626 45.7639 41.1413 46.234 41.1413C46.6705 41.1413 47.1741 41.0514 47.7673 40.8715C48.45 41.2087 49.0767 41.501 49.6475 41.7258C50.2183 41.9506 50.722 42.1305 51.1473 42.2766C51.5837 42.4227 51.9307 42.5127 52.1881 42.5801C52.4567 42.6363 52.6134 42.67 52.6694 42.67C53.4304 42.67 54.2362 42.5801 55.0868 42.4002C55.9374 42.2204 56.788 41.9731 57.605 41.6696C58.3213 41.3998 59.004 41.0851 59.6755 40.7479C59.7762 40.8153 59.8658 40.8827 59.9777 40.9277C60.3134 41.0851 60.7164 41.1638 61.1864 41.1638C61.6229 41.1638 62.1265 41.0738 62.7197 40.894C63.4024 41.2312 64.0292 41.5235 64.6 41.7483C65.1708 41.9731 65.6744 42.1529 66.0997 42.2991C66.5362 42.4452 66.8831 42.5351 67.1405 42.6026C67.4091 42.6588 67.5658 42.6925 67.6218 42.6925C68.3828 42.6925 69.1887 42.6026 70.0392 42.4227C70.8898 42.2429 71.7404 41.9956 72.5574 41.6921C73.3856 41.3773 74.1803 41.0289 74.9301 40.613C75.1875 40.4781 75.4114 40.3319 75.6464 40.1858C75.7807 40.3657 75.915 40.568 76.0717 40.7366C76.6089 41.3099 77.2357 41.7483 77.9296 42.0518C78.6347 42.3553 79.3509 42.5127 80.0896 42.5127C80.7947 42.5127 81.4886 42.4002 82.1937 42.1642C82.8876 41.9394 83.5703 41.6359 84.2082 41.2762C84.8574 40.9165 85.4505 40.5118 85.999 40.0734C86.5474 39.6238 87.0062 39.1854 87.3756 38.7582C87.868 40.006 88.4612 40.9502 89.1439 41.6021C89.8266 42.2541 90.6772 42.5801 91.7068 42.5801C92.5574 42.5801 93.408 42.3665 94.2586 41.9506C95.1092 41.5235 95.9038 41.0064 96.6425 40.3994C97.3812 39.7924 98.0527 39.1404 98.6458 38.466C99.239 37.7915 99.7091 37.207 100.067 36.7012L98.9592 31.5866L98.8921 31.5192ZM61.3431 34.2507C61.1417 34.2956 60.9514 34.3743 60.7611 34.4755C60.403 34.6666 60.0448 34.9139 59.6867 35.2174C59.3286 35.5209 58.948 35.8356 58.5563 36.1729C58.1646 36.5101 57.7393 36.8248 57.2804 37.1283C56.8216 37.4318 56.3291 37.6791 55.8031 37.8702C55.2659 38.0613 54.6839 38.1625 54.0348 38.1625C53.7438 38.1625 53.3968 38.1063 53.0051 37.9939C52.6134 37.8815 52.2329 37.7578 51.8859 37.6342C51.5278 37.4993 51.2256 37.3756 50.957 37.2632C50.6996 37.1508 50.5541 37.0946 50.5429 37.0946L50.6548 36.6225C50.7891 36.4314 51.0689 36.0717 51.4718 35.5546C51.8859 35.0263 52.356 34.4081 52.9044 33.6886C53.4528 32.9692 54.0683 32.1262 54.7622 31.1595C55.445 30.1815 56.0717 29.316 56.6425 28.5404C57.2021 27.776 57.7057 27.0678 58.131 26.4384C58.5675 25.8089 58.8697 25.3255 59.06 24.977C59.3957 24.8871 59.6755 24.7972 59.9105 24.696C59.877 24.8759 59.8322 25.0445 59.7986 25.2356C59.765 25.4267 59.7427 25.6065 59.7315 25.7864C59.7203 25.9662 59.7091 26.1348 59.7091 26.281C59.7091 26.6519 59.7539 26.9554 59.8546 27.1802C59.9553 27.4051 60.1344 27.5175 60.3806 27.5175C60.638 27.5175 60.9402 27.3489 61.2648 27.0116C61.5893 26.6744 61.9922 26.1348 62.4735 25.4154C62.6861 25.0782 62.8876 24.8309 63.0667 24.6398C63.2457 24.46 63.4472 24.3251 63.671 24.2352C63.8949 24.1452 64.1747 24.089 64.488 24.0778C64.8126 24.0665 65.2267 24.0553 65.7192 24.0553C65.9206 24.0553 66.0997 24.0778 66.2788 24.1228C66.4466 24.1677 66.6145 24.2352 66.7712 24.3251C66.9279 24.415 67.1182 24.5049 67.3196 24.6173C67.5211 24.7298 67.7561 24.8422 68.0359 24.9658L61.3655 34.2282L61.3431 34.2507ZM85.943 31.373C85.887 31.8676 85.7415 32.4971 85.5401 33.2503C85.3274 34.0034 85.0588 34.7228 84.7119 35.431C84.3761 36.1279 83.9732 36.7349 83.5032 37.2295C83.0331 37.7241 82.5183 37.9826 81.9475 37.9826C81.5893 37.9826 81.2983 37.8927 81.0633 37.7016C80.8283 37.5218 80.6492 37.2745 80.5037 36.9822C80.3694 36.6899 80.2687 36.3527 80.2127 35.9705C80.1568 35.5996 80.1344 35.2062 80.1344 34.8015C80.1344 34.127 80.2239 33.4076 80.403 32.632C80.5821 31.8676 80.8842 30.9684 81.3207 29.9567C81.7572 28.945 82.1937 28.0907 82.6414 27.3938C83.089 26.6969 83.5815 26.0899 84.1075 25.5503C84.6447 25.0108 85.2043 24.5836 85.8087 24.2689C86.4131 23.9541 87.0286 23.7968 87.6666 23.7968L85.943 31.3618V31.373Z" fill="#F5F5F5"/>
<path d="M30.6212 49.5606H26.066V52.4157C26.066 52.5281 26.0996 52.618 26.1556 52.6855C26.2115 52.7529 26.3011 52.7979 26.4354 52.8316V53.0227H23.9731V52.8316C24.1074 52.7979 24.2082 52.7417 24.2641 52.6855C24.3201 52.618 24.3425 52.5394 24.3425 52.4157V45.6937C24.3425 45.5813 24.3201 45.4914 24.2641 45.424C24.2082 45.3565 24.1186 45.3115 23.9731 45.2778V45.0867H26.4354V45.2778C26.3011 45.3115 26.2003 45.3677 26.1444 45.424C26.0884 45.4914 26.066 45.5813 26.066 45.6937V48.2566H30.6212V45.6937C30.6212 45.5813 30.5988 45.4914 30.5428 45.424C30.4869 45.3565 30.3973 45.3115 30.2518 45.2778V45.0867H32.7141V45.2778C32.5797 45.3115 32.479 45.3677 32.4231 45.424C32.3671 45.4914 32.3447 45.5701 32.3447 45.6937V52.4157C32.3447 52.5281 32.3671 52.618 32.4231 52.6855C32.479 52.7529 32.5686 52.7979 32.7141 52.8316V53.0227H30.2518V52.8316C30.3861 52.7979 30.4869 52.7417 30.5428 52.6855C30.5988 52.618 30.6324 52.5281 30.6324 52.4157V49.5606H30.6212Z" fill="#F5F5F5"/>
<path d="M43.7047 44.9406C45.0813 44.9406 46.1781 45.3116 46.9839 46.0647C47.8345 46.8515 48.2598 47.8632 48.2598 49.0997C48.2598 49.8641 48.0583 50.5722 47.6442 51.2242C46.8496 52.5169 45.5289 53.1576 43.7158 53.1576C42.3504 53.1576 41.2648 52.7867 40.459 52.0335C40.0225 51.6289 39.6979 51.1568 39.4741 50.5947C39.2726 50.1001 39.1831 49.5831 39.1831 49.0435C39.1831 48.2454 39.3846 47.526 39.7875 46.8628C40.5597 45.6038 41.8692 44.9631 43.7047 44.9406ZM43.7047 46.2895C42.9548 46.2895 42.328 46.5143 41.8244 46.964C41.2312 47.4923 40.929 48.1892 40.929 49.0435C40.929 49.8978 41.2312 50.5947 41.8244 51.123C42.328 51.5727 42.9548 51.7975 43.7158 51.7975C44.4769 51.7975 45.1036 51.5727 45.6073 51.123C45.9095 50.8533 46.1333 50.5273 46.29 50.1451C46.4243 49.7966 46.5026 49.4482 46.5026 49.0772C46.5026 48.178 46.2005 47.4698 45.6073 46.9527C45.1036 46.5143 44.4657 46.2895 43.7047 46.2783V46.2895Z" fill="#F5F5F5"/>
<path d="M62.7533 45.6937V50.1451C62.7533 50.9881 62.5966 51.6176 62.2944 52.0335C61.7348 52.7867 60.5933 53.1576 58.8473 53.1576C57.5938 53.1576 56.6313 52.9553 55.9598 52.5506C55.5681 52.3145 55.2995 51.9886 55.154 51.5839C55.0085 51.1792 54.9301 50.6959 54.9301 50.1451V45.6937C54.9301 45.5701 54.9077 45.4802 54.8518 45.424C54.7958 45.3565 54.7063 45.3115 54.5608 45.2778V45.0867H57.023V45.2778C56.8887 45.3115 56.788 45.3677 56.732 45.424C56.6761 45.4914 56.6537 45.5813 56.6537 45.705V49.6617C56.6537 50.1226 56.6761 50.4598 56.732 50.6734C56.7768 50.8982 56.8775 51.0781 57.0118 51.2242C57.3812 51.6176 58.0191 51.8199 58.9145 51.8199C59.8098 51.8199 60.4478 51.6176 60.8171 51.2242C60.9514 51.0781 61.0409 50.8982 61.0969 50.6734C61.1417 50.4598 61.1752 50.1114 61.1752 49.6617V45.705C61.1752 45.5813 61.1528 45.4914 61.0969 45.4352C61.0409 45.3677 60.9514 45.3228 60.8059 45.2891V45.098H63.1338V45.2891C62.9995 45.3228 62.8988 45.379 62.8428 45.4352C62.7869 45.5026 62.7645 45.5926 62.7645 45.705L62.7533 45.6937Z" fill="#F5F5F5"/>
<path d="M76.9558 45.7612L76.0156 47.6272L75.8478 47.5373C75.8478 47.5373 75.8478 47.4698 75.8478 47.4473C75.8478 47.3125 75.7358 47.1776 75.512 47.0202C74.8293 46.5368 74.0235 46.3008 73.0945 46.3008C72.6804 46.3008 72.3223 46.357 72.0089 46.4469C71.7851 46.5256 71.5948 46.638 71.4605 46.7954C71.3262 46.9528 71.2479 47.1214 71.2479 47.3012C71.2479 47.6047 71.427 47.807 71.7851 47.9082C71.9642 47.9644 72.3671 48.0206 72.9826 48.0881L73.8892 48.178C74.4264 48.2342 74.8629 48.3129 75.1986 48.4141C75.5344 48.5152 75.8254 48.6613 76.0828 48.8412C76.3402 49.0323 76.5529 49.2796 76.7095 49.5943C76.855 49.9091 76.9334 50.2351 76.9334 50.5835C76.9334 51.1456 76.7543 51.6402 76.3962 52.0673C76.0716 52.4607 75.568 52.753 74.8853 52.9441C74.3704 53.0902 73.8332 53.1577 73.2512 53.1577C72.2104 53.1577 71.1695 52.9104 70.1511 52.4045C69.9384 52.3034 69.8041 52.2584 69.7594 52.2584C69.7146 52.2584 69.625 52.3034 69.5243 52.382L69.3564 52.2921L70.2182 50.3475L70.3861 50.4261V50.5048C70.3861 50.6847 70.4644 50.8421 70.6323 50.9882C70.8785 51.213 71.2703 51.4041 71.7963 51.5727C72.3223 51.7301 72.8148 51.82 73.2848 51.82C73.7996 51.82 74.2361 51.7301 74.5943 51.5615C74.7957 51.4603 74.9524 51.3366 75.0755 51.1793C75.1986 51.0219 75.2546 50.8533 75.2546 50.6734C75.2546 50.4149 75.1091 50.2238 74.8293 50.1114C74.6278 50.0327 74.2361 49.9653 73.6318 49.8978L72.7364 49.8079C72.1432 49.7405 71.7179 49.6843 71.4717 49.6281C71.2255 49.5719 70.9793 49.4819 70.7331 49.3583C70.3861 49.1784 70.1063 48.9199 69.9048 48.5714C69.7258 48.2567 69.6362 47.897 69.6362 47.4923C69.6362 46.8179 69.8713 46.2671 70.3301 45.8287C70.9345 45.2554 71.8411 44.9631 73.0386 44.9631C73.5422 44.9631 74.0123 45.0193 74.4488 45.1205C74.8853 45.2217 75.4337 45.4128 76.0828 45.6938C76.3066 45.7837 76.4409 45.8287 76.4969 45.8287C76.5752 45.8287 76.676 45.7837 76.7767 45.6938L76.9334 45.7837L76.9558 45.7612Z" fill="#F5F5F5"/>
<path d="M85.4506 49.5381V51.7076H90.5317C90.6436 51.7076 90.7331 51.6851 90.8003 51.6289C90.8563 51.5727 90.9122 51.4828 90.9458 51.3366H91.1361V53.3937H90.9458C90.9122 53.2588 90.8563 53.1576 90.8003 53.1014C90.7443 53.0452 90.6548 53.0227 90.5317 53.0227H83.3577V52.8316C83.492 52.7979 83.5927 52.7417 83.6487 52.6855C83.7046 52.6181 83.727 52.5281 83.727 52.4157V45.705C83.727 45.5813 83.7046 45.4914 83.6487 45.4352C83.5927 45.3678 83.5032 45.3228 83.3577 45.2891V45.098H90.3974C90.5093 45.098 90.5989 45.0755 90.666 45.0193C90.722 44.9631 90.7779 44.8732 90.8115 44.7271H91.0018V46.7841H90.8115C90.7779 46.6492 90.722 46.5481 90.666 46.4919C90.61 46.4356 90.5205 46.4132 90.3974 46.4132H85.4506V48.3016H88.6626C88.7746 48.3016 88.8641 48.2791 88.9312 48.2229C88.9872 48.1667 89.0432 48.0768 89.0767 47.9307H89.267V49.9315H89.0767C89.0432 49.7966 88.9872 49.6955 88.9312 49.6393C88.8753 49.5831 88.7858 49.5493 88.6626 49.5493H85.4506V49.5381Z" fill="#F5F5F5"/>
<path d="M64.2417 10.7912V15.5011H63.3016V10.7912H61.6228V9.92566H65.9317V10.7912H64.2529H64.2417Z" fill="#F5F5F5"/>
<path d="M66.939 15.5011V9.92566H67.8791V12.3424H70.6323V9.92566H71.5724V15.5011H70.6323V13.2192H67.8791V15.5011H66.939Z" fill="#F5F5F5"/>
<path d="M77.0117 9.92566V10.8137H74.0458V12.2862H76.7095V13.118H74.0458V14.6131H77.1012V15.5011H73.1057V9.92566H77.0005H77.0117Z" fill="#F5F5F5"/>
<path d="M48.2708 12.9157L58.4218 13.6913V12.1513L48.2708 12.9157Z" fill="#F5F5F5"/>
<path d="M90.4531 12.9157L80.3132 12.1513V13.6913L90.4531 12.9157Z" fill="#F5F5F5"/>
</g>
<defs>
<clipPath id="clip0_110_208">
<rect width="100" height="53.3937" fill="white"/>
</clipPath>
</defs>
</svg>
