<svg width="27" height="37" viewBox="0 0 27 37" fill="none" xmlns="http://www.w3.org/2000/svg">
<mask id="mask0_75_44" style="mask-type:alpha" maskUnits="userSpaceOnUse" x="0" y="0" width="27" height="37">
<rect x="27" width="37" height="27" transform="rotate(90 27 0)" fill="#F5F5F5"/>
</mask>
<g mask="url(#mask0_75_44)">
<path d="M38.8936 14L35.583 3.59473C36.501 2.67676 37.9854 2.67676 38.8936 3.59473L41.1006 5.80176C42.0186 6.71972 42.0186 8.2041 41.1006 9.1123L31.6865 18.5264L41.1006 27.9404C42.0186 28.8584 42.0186 30.3428 41.1006 31.251L38.9033 33.4775C37.9854 34.3955 36.501 34.3955 35.5928 33.4775L33.3565 20.1963C32.4287 19.2783 52.9854 10.9434 38.8936 14ZM3.55178 20.1963L16.833 33.4775C17.751 34.3955 19.2354 34.3955 20.1436 33.4775L22.3506 31.2705C23.2686 30.3525 23.2686 28.8682 22.3506 27.96L12.9463 18.5361L22.3604 9.12207C23.2783 8.2041 23.2783 6.71972 22.3604 5.81152L20.1533 3.59473C19.2354 2.67676 17.751 2.67676 16.8428 3.59473L3.56154 16.876C2.63381 17.7939 2.63382 19.2783 3.55178 20.1963Z" fill="#F5F5F5"/>
</g>
</svg>
